HIERARCHY
ROOT hip
{
  OFFSET 0 0 0
  CHANNELS 6 Xposition Yposition Zposition Zrotation Yrotation Xrotation
  JOINT abdomen
  {
    OFFSET 0 20.6881 -0.73152
    CHANNELS 3 Zrotation Xrotation Yrotation
    JOINT chest
    {
      OFFSET 0 11.7043 -0.48768
      CHANNELS 3 Zrotation Xrotation Yrotation
      JOINT neck
      {
        OFFSET 0 22.1894 -2.19456
        CHANNELS 3 Zrotation Xrotation Yrotation
        JOINT head
        {
          OFFSET -0.24384 7.07133 1.2192
          CHANNELS 3 Zrotation Xrotation Yrotation
          JOINT leftEye
          {
            OFFSET 4.14528 8.04674 8.04672
            CHANNELS 3 Zrotation Xrotation Yrotation
            End Site
            {
              OFFSET 1 0 0
            }
          }
          JOINT rightEye
          {
            OFFSET -3.6576 8.04674 8.04672
            CHANNELS 3 Zrotation Xrotation Yrotation
            End Site
            {
              OFFSET 1 0 0
            }
          }
        }
      }
      JOINT rCollar
      {
        OFFSET -2.68224 19.2634 -4.8768
        CHANNELS 3 Zrotation Xrotation Yrotation
        JOINT rShldr
        {
          OFFSET -8.77824 -1.95073 1.46304
          CHANNELS 3 Zrotation Xrotation Yrotation
          JOINT rForeArm
          {
            OFFSET -28.1742 -1.7115 0.48768
            CHANNELS 3 Zrotation Xrotation Yrotation
            JOINT rHand
            {
              OFFSET -22.5879 0.773209 7.07136
              CHANNELS 3 Zrotation Xrotation Yrotation
              JOINT rThumb1
              {
                OFFSET -1.2192 -0.487915 3.41376
                CHANNELS 3 Zrotation Xrotation Yrotation
                JOINT rThumb2
                {
                  OFFSET -3.37035 -0.52449 3.41376
                  CHANNELS 3 Zrotation Xrotation Yrotation
                  End Site
                  {
                    OFFSET -1.78271 -1.18214 1.43049
                  }
                }
              }
              JOINT rIndex1
              {
                OFFSET -7.75947 0.938293 5.60832
                CHANNELS 3 Zrotation Xrotation Yrotation
                JOINT rIndex2
                {
                  OFFSET -2.54057 -0.884171 1.56538
                  CHANNELS 3 Zrotation Xrotation Yrotation
                  End Site
                  {
                    OFFSET -1.62519 -0.234802 1.16502
                  }
                }
              }
              JOINT rMid1
              {
                OFFSET -8.24714 1.18213 3.41376
                CHANNELS 3 Zrotation Xrotation Yrotation
                JOINT rMid2
                {
                  OFFSET -3.10165 -0.590103 1.0647
                  CHANNELS 3 Zrotation Xrotation Yrotation
                  End Site
                  {
                    OFFSET -2.48547 -0.328903 0.83742
                  }
                }
              }
              JOINT rRing1
              {
                OFFSET -8.82822 0.546677 1.51678
                CHANNELS 3 Zrotation Xrotation Yrotation
                JOINT rRing2
                {
                  OFFSET -2.60934 -0.819778 -0.0198488
                  CHANNELS 3 Zrotation Xrotation Yrotation
                  End Site
                  {
                    OFFSET -2.33842 -0.294052 0.168128
                  }
                }
              }
              JOINT rPinky1
              {
                OFFSET -8.27202 -0.0477905 -0.4584
                CHANNELS 3 Zrotation Xrotation Yrotation
                JOINT rPinky2
                {
                  OFFSET -1.82734 -0.647385 -0.700984
                  CHANNELS 3 Zrotation Xrotation Yrotation
                  End Site
                  {
                    OFFSET -1.69225 -0.51767 -0.607171
                  }
                }
              }
            }
          }
        }
      }
      JOINT lCollar
      {
        OFFSET 2.68224 19.2634 -4.8768
        CHANNELS 3 Zrotation Xrotation Yrotation
        JOINT lShldr
        {
          OFFSET 8.77824 -1.95073 1.46304
          CHANNELS 3 Zrotation Xrotation Yrotation
          JOINT lForeArm
          {
            OFFSET 28.1742 -1.7115 0.48768
            CHANNELS 3 Zrotation Xrotation Yrotation
            JOINT lHand
            {
              OFFSET 22.5879 0.773209 7.07136
              CHANNELS 3 Zrotation Xrotation Yrotation
              JOINT lThumb1
              {
                OFFSET 1.2192 -0.487915 3.41376
                CHANNELS 3 Zrotation Xrotation Yrotation
                JOINT lThumb2
                {
                  OFFSET 3.37035 -0.52449 3.41376
                  CHANNELS 3 Zrotation Xrotation Yrotation
                  End Site
                  {
                    OFFSET 1.78271 -1.18214 1.43049
                  }
                }
              }
              JOINT lIndex1
              {
                OFFSET 7.75947 0.938293 5.60832
                CHANNELS 3 Zrotation Xrotation Yrotation
                JOINT lIndex2
                {
                  OFFSET 2.54057 -0.884171 1.56538
                  CHANNELS 3 Zrotation Xrotation Yrotation
                  End Site
                  {
                    OFFSET 1.62519 -0.234802 1.16502
                  }
                }
              }
              JOINT lMid1
              {
                OFFSET 8.24714 1.18213 3.41376
                CHANNELS 3 Zrotation Xrotation Yrotation
                JOINT lMid2
                {
                  OFFSET 3.10165 -0.590103 1.0647
                  CHANNELS 3 Zrotation Xrotation Yrotation
                  End Site
                  {
                    OFFSET 2.48547 -0.328903 0.83742
                  }
                }
              }
              JOINT lRing1
              {
                OFFSET 8.82822 0.546677 1.51678
                CHANNELS 3 Zrotation Xrotation Yrotation
                JOINT lRing2
                {
                  OFFSET 2.60934 -0.819778 -0.0198488
                  CHANNELS 3 Zrotation Xrotation Yrotation
                  End Site
                  {
                    OFFSET 2.33842 -0.294052 0.168128
                  }
                }
              }
              JOINT lPinky1
              {
                OFFSET 8.27202 -0.0477905 -0.4584
                CHANNELS 3 Zrotation Xrotation Yrotation
                JOINT lPinky2
                {
                  OFFSET 1.82734 -0.647385 -0.700984
                  CHANNELS 3 Zrotation Xrotation Yrotation
                  End Site
                  {
                    OFFSET 1.69225 -0.51767 -0.607171
                  }
                }
              }
            }
          }
        }
      }
    }
  }
  JOINT rButtock
  {
    OFFSET -8.77824 4.35084 1.2192
    CHANNELS 3 Zrotation Xrotation Yrotation
    JOINT rThigh
    {
      OFFSET 0 -1.70687 -2.19456
      CHANNELS 3 Zrotation Xrotation Yrotation
      JOINT rShin
      {
        OFFSET 0 -36.8199 0.73152
        CHANNELS 3 Zrotation Xrotation Yrotation
        JOINT rFoot
        {
          OFFSET 0.73152 -45.1104 -5.12064
          CHANNELS 3 Zrotation Xrotation Yrotation
          End Site
          {
            OFFSET -1.1221 -3.69964 12.103
          }
        }
      }
    }
  }
  JOINT lButtock
  {
    OFFSET 8.77824 4.35084 1.2192
    CHANNELS 3 Zrotation Xrotation Yrotation
    JOINT lThigh
    {
      OFFSET 0 -1.70687 -2.19456
      CHANNELS 3 Zrotation Xrotation Yrotation
      JOINT lShin
      {
        OFFSET 0 -36.8199 0.73152
        CHANNELS 3 Zrotation Xrotation Yrotation
        JOINT lFoot
        {
          OFFSET -0.73152 -45.1104 -5.12064
          CHANNELS 3 Zrotation Xrotation Yrotation
          End Site
          {
            OFFSET 1.1221 -3.69964 12.103
          }
        }
      }
    }
  }
}
MOTION
Frames:	4
Frame Time:	0.03333
0.057899998500943184 57.51330256462097 0.0969999993685633 10.214200417880045 19.35089922060285 6.81989991691495 -18.784799481813852 10.788100232701195 -1.4717800479683374 6.180969871006107 -7.858019941978365 -0.44774301919984244 -6.561810120068617 18.284300294908245 -10.431999782586118 11.352599999677118 -26.721100221869733 -18.058900637203237 -0.0 0.0 0.0 -0.0 0.0 0.0 -1.0921899856288691e-13 3.2086200942721044e-14 -2.497550024715834e-13 50.68990058560196 29.866501372403572 5.662579857343296 -23.007999360733827 -17.349899680599236 46.608999160302744 -0.06014309733441505 6.980130178427926 0.9859259605819989 1.8137600093481304e-09 -5.973140134480757e-09 8.019419762218635e-10 3.14153007066063e-09 -1.0286600044525539e-08 1.3745999520883655e-09 1.8137600093481304e-09 -5.973140134480757e-09 8.019299994456411e-10 7.730910121524428 5.474879855648998 0.41731399283890674 1.8137600093481304e-09 -5.973150073714136e-09 8.019460016113821e-10 2.90554006136521 0.9651829962377875 0.10290200252939893 1.8137600093481304e-09 -5.973140134480757e-09 8.019430198413683e-10 10.278599710243157 0.7318009818271524 0.025912300303053633 1.8137600093481304e-09 -5.973140134480757e-09 8.019530087709147e-10 2.221669932038622 -0.7334870246959406 -0.20891999872313852 -1.0934200142910043e-13 3.2095300582655956e-14 -2.499400042178868e-13 -64.5495018833384 36.42209986230888 -14.141500280255785 16.19570016370463 -8.870329962828771 -30.086901331636128 0.3009859995158048 15.421300145797755 -2.2218099509166076 1.617339984769995e-09 2.9031099269827642e-09 9.541679947163958e-10 2.8045399653568553e-09 5.014270087237152e-09 1.6260700110166095e-09 1.617339984769995e-09 2.9031200650008114e-09 9.541899604221647e-10 -7.730910121524428 5.474879855648998 -0.41731399283890674 1.6173500233957082e-09 2.9031099269827642e-09 9.541719704097475e-10 -2.90554006136521 0.9651829962377875 -0.10290200252939893 1.617339984769995e-09 2.9031099269827642e-09 9.541749521797615e-10 -10.278599710243157 0.7318009818271524 -0.025912300303053633 1.6173500233957082e-09 2.9031200650008114e-09 9.541729643330855e-10 -2.221669932038622 -0.7334870246959406 0.20891999872313852 -2.0321699793705798e-16 0.0 -3.882510030490358e-19 -60.48659800650216 -56.999701057846025 -50.37239924203392 -2.0306500315208758 70.19980319498812 2.652080065559088 1.0341300206493638 -2.31532996824948 9.660300250722337 2.0321699793705798e-16 0.0 3.882510030490358e-19 6.8386398215633495 12.578199752834097 2.896249936876935 -0.1730039959213686 29.433300039390097 -2.32711994197398 12.12239988517799 -21.35039953408365 32.00020124269678
0.09559999743942171 57.489001750946045 0.19700000411830842 10.171100216669972 19.292699178685172 6.792600077689232 -18.702299334376562 10.825100221208801 -1.2972500383759997 6.104350089557373 -7.785689946215222 -0.40931400037139704 -7.060179995500475 17.876300652384824 -10.373300283085383 11.957399590303407 -26.32029959873151 -17.820800242736595 -0.0 0.0 0.0 -0.0 0.0 0.0 -1.5436100193183595e-13 -2.9358001495275263e-14 3.054959934475202e-14 50.590900408677214 30.253701381357008 5.826270036557705 -22.983400434438025 -17.308800724815974 46.53780126839453 -0.05486079978505644 6.6686902008614455 0.9415209797970419 1.2738000240614154e-09 -2.287779939840073e-09 1.2583799992193437e-10 2.2021299876842718e-09 -3.934940109557133e-09 2.121750015850988e-10 1.2738000240614154e-09 -2.287779939840073e-09 1.2582900491572586e-10 7.730910121524428 5.474879855648998 0.41731399283890674 1.2738000240614154e-09 -2.287770000606694e-09 1.2583399938049908e-10 2.90554006136521 0.9651829962377875 0.10290200252939893 1.2738000240614154e-09 -2.287779939840073e-09 1.2583500572787878e-10 10.278599710243157 0.7318009818271524 0.025912300303053633 1.2737899854357021e-09 -2.287779939840073e-09 1.258429943867076e-10 2.221669932038622 -0.7334870246959406 -0.20891999872313852 -1.5445499514593697e-13 -2.935859903829765e-14 3.0400899095362306e-14 -64.52679833453728 36.20249903520922 -14.476399823187142 16.189100493419105 -8.864080339738209 -30.072800406094636 0.2876689982641311 15.089300018169068 -2.171609981507718 4.688050135223483e-10 7.083469984717662e-10 2.5811398917698677e-10 8.113049825462561e-10 1.221269982942364e-09 4.3847499559907776e-10 4.687960185161399e-10 7.083450106250903e-10 2.581430117384551e-10 -7.730910121524428 5.474879855648998 -0.41731399283890674 4.688070013690243e-10 7.083460045484282e-10 2.5812099633651937e-10 -2.90554006136521 0.9651829962377875 -0.10290200252939893 4.687990002861537e-10 7.083450106250903e-10 2.581169957950841e-10 -10.278599710243157 0.7318009818271524 -0.025912300303053633 4.688150024518949e-10 7.083469984717662e-10 2.5811299525364884e-10 -2.221669932038622 -0.7334870246959406 0.20891999872313852 -2.0321699793705798e-16 0.0 -3.882510030490358e-19 -60.15239685041344 -57.088100781178916 -49.990598497619374 -2.0519800719685906 70.34939799818974 2.6771699117014833 1.0402000311090953 -2.4893999005681935 9.511199782461897 2.0321699793705798e-16 0.0 3.882510030490358e-19 6.942640123847371 12.77329983760728 3.0786599570590574 -0.1729690045420855 29.352198373185367 -2.327389947889607 12.155000378086461 -21.457700098397257 31.973099052070168
0.2187999925808981 57.426899671554565 0.2380000049015507 10.074400105948223 19.219199513026666 6.7457001568665165 -18.826800022567554 10.810000380501195 -1.279880013543011 6.060329947243464 -7.742529980849912 -0.4147569941292361 -7.329650168164519 17.773099909120518 -10.346099908489453 12.24439987035911 -26.206800637746113 -17.711800668866946 -0.0 0.0 0.0 -0.0 0.0 0.0 -1.768180033272059e-13 -1.2620000195555214e-14 -4.120400072573007e-14 50.538700687945386 30.73360071772586 5.942700002470682 -22.924300515097197 -17.211200736671078 46.366100557944165 -0.05532910130013205 6.69991996018086 0.9459649783474873 1.058099973965917e-09 -2.516780075690114e-09 3.070040097035205e-10 1.82907000687669e-09 -4.3299801086296395e-09 5.255809957488198e-10 1.058099973965917e-09 -2.516780075690114e-09 3.0699200807921465e-10 7.730910121524428 5.474879855648998 0.41731399283890674 1.058099973965917e-09 -2.5167699376720668e-09 3.069979964673258e-10 2.90554006136521 0.9651829962377875 0.10290200252939893 1.058099973965917e-09 -2.516780075690114e-09 3.0700100308542317e-10 10.278599710243157 0.7318009818271524 0.025912300303053633 1.058099973965917e-09 -2.516780075690114e-09 3.070080102449557e-10 2.221669932038622 -0.7334870246959406 -0.20891999872313852 -1.768890047844047e-13 -1.2625899795446348e-14 -4.137979970284595e-14 -64.59760007547362 36.00519877574965 -14.621899927981339 16.195899946737853 -8.870440099629137 -30.087300897702573 0.2840409938760907 14.996300162430174 -2.157589951019209 6.331099835584087e-10 1.2776900412215128e-09 6.384380090038629e-10 1.0997399946403051e-09 2.210539970616064e-09 1.0944200199738883e-09 6.330970128588484e-10 1.2776800025957995e-09 6.384640000991504e-10 -7.730910121524428 5.474879855648998 -0.41731399283890674 6.331089896350708e-10 1.2776900412215128e-09 6.384440222400576e-10 -2.90554006136521 0.9651829962377875 -0.10290200252939893 6.331019824755382e-10 1.2776900412215128e-09 6.384390029272008e-10 -10.278599710243157 0.7318009818271524 -0.025912300303053633 6.331169907179413e-10 1.2776900412215128e-09 6.384349775376821e-10 -2.221669932038622 -0.7334870246959406 0.20891999872313852 -2.0321699793705798e-16 0.0 -3.882510030490358e-19 -60.3345989767127 -57.06339940204556 -49.94710043789015 -2.081309971481683 70.54840238984724 2.7101800025167435 1.0463899967661252 -2.6424100117982308 9.39910015648271 2.0321699793705798e-16 0.0 3.882510030490358e-19 6.827209926874156 12.909200111523024 3.1167700647502015 -0.17521700389287917 29.267299121802107 -2.325750062158569 12.179199738315816 -21.546099821730145 31.964998447714535
0.3173999983118847 57.411301136016846 0.2980000077513978 10.227800178291186 19.35419990951926 6.776299831234996 -19.15849962187276 10.742799856804734 -1.4196800053097147 6.04902000775157 -7.728540045882433 -0.4640619953134425 -7.370860114521791 17.974899555695835 -10.34999994650553 12.216299618340033 -26.381499801242114 -17.73019949094367 -0.0 0.0 0.0 -0.0 0.0 0.0 -1.7659099764296296e-13 8.230020105036455e-14 -4.650149928150755e-13 50.53410055553938 31.306400872090638 6.011760045168681 -22.82959994225497 -17.055800272674947 46.09439904785564 -0.06170899824291981 7.07381988327299 0.9992860240419553 1.1666699970796825e-09 -6.6601598241436355e-09 1.3454400304147051e-09 2.022349929453217e-09 -1.1471700163276296e-08 2.314820021818538e-09 1.1666699970796825e-09 -6.660139945676876e-09 1.3454199531632785e-09 7.730910121524428 5.474879855648998 0.41731399283890674 1.1666699970796825e-09 -6.660139945676876e-09 1.3454400304147051e-09 2.90554006136521 0.9651829962377875 0.10290200252939893 1.1666699970796825e-09 -6.660149884910256e-09 1.3454400304147051e-09 10.278599710243157 0.7318009818271524 0.025912300303053633 1.1666699970796825e-09 -6.660139945676876e-09 1.3454499696480847e-09 2.221669932038622 -0.7334870246959406 -0.20891999872313852 -1.7664500097276337e-13 8.229360077819843e-14 -4.652820126493256e-13 -64.75940042672205 35.83040057451068 -14.57930003812797 16.216100231208166 -8.889399850991447 -30.130098863041873 0.28973899914989454 15.142300578581073 -2.1796000221761633 2.1102600632795333e-09 4.611130010529629e-09 2.0951399051085234e-09 3.6698599601852382e-09 7.98207030980954e-09 3.5939198439026096e-09 2.1102399860281067e-09 4.611130010529629e-09 2.0951500431265706e-09 -7.730910121524428 5.474879855648998 -0.41731399283890674 2.110249925261486e-09 4.6111399497630085e-09 2.0951399051085234e-09 -2.90554006136521 0.9651829962377875 -0.10290200252939893 2.110249925261486e-09 4.6111399497630085e-09 2.0951399051085234e-09 -10.278599710243157 0.7318009818271524 -0.025912300303053633 2.1102600632795333e-09 4.6111399497630085e-09 2.0951399051085234e-09 -2.221669932038622 -0.7334870246959406 0.20891999872313852 -2.0321699793705798e-16 0.0 -3.882510030490358e-19 -61.03280140423891 -56.925999901607 -50.241901647751654 -2.1191500732572 70.79680270958225 2.751610009031337 1.053119974254409 -2.774290079057187 9.323969783159862 2.0321699793705798e-16 0.0 3.882510030490358e-19 6.493529999596468 12.985899720807682 3.010300008750985 -0.1797380021540458 29.178598870145738 -2.3222101031777984 12.194999673413347 -21.61560041162961 31.975899429629873
